<svg width="64" height="64" viewBox="0 0 64 64" fill="none" xmlns="http://www.w3.org/2000/svg" role="img" aria-label="clover">
    <title>clover</title>
    <desc>
        The Clover mark: the same Lucide clover glyph the app renders through
        resources/js/components/clover/wordmark.tsx, on the brand green.
        Colours are the sRGB equivalents of the dark-scope tokens in app.css
        (primary and bg). They are literals because a favicon is fetched
        outside the document and cannot read CSS custom properties.
    </desc>
    <rect width="64" height="64" rx="14" fill="#34C76F"/>
    <g transform="translate(14 14) scale(1.5)"
       stroke="#080A09"
       stroke-width="2"
       stroke-linecap="round"
       stroke-linejoin="round"
       fill="none">
        <path d="M16.17 7.83 2 22"/>
        <path d="M4.02 12a2.827 2.827 0 1 1 3.81-4.17A2.827 2.827 0 1 1 12 4.02a2.827 2.827 0 1 1 4.17 3.81A2.827 2.827 0 1 1 19.98 12a2.827 2.827 0 1 1-3.81 4.17A2.827 2.827 0 1 1 12 19.98a2.827 2.827 0 1 1-4.17-3.81A1 1 0 1 1 4 12"/>
        <path d="m7.83 7.83 8.34 8.34"/>
    </g>
</svg>
